# xmcd
#
# Track frame offsets: 
#        225
#        13737
#        29749
#        39765
#        51400
#        61416
#        74143
#        91877
#        104110
#        114121
#        124797
#        137855
#        151290
#        165743
#        178557
#        188257
#        200419
#        213073
#        225073
#        238016
#        247949
#        257879
#
# Disc length: 3615 seconds
#
# Revision: 0
# Processed by: cddbd v1.5.2PL0 Copyright (c) Steve Scherf et al.
# Submitted via: ExactAudioCopy v1.3
#
DISCID=2b0e1c16
DTITLE=Lynn Anderson - Lynn Anderson-Rose Garden and Greatest Hits
DYEAR=2018
DGENRE=Country
TTITLE0=Rose Garden
TTITLE1=For The Good Times
TTITLE2=Another Lonely Night
TTITLE3=I Don't Wanna Play House
TTITLE4=Snowbird
TTITLE5=Your Sweet Love Lifted Me
TTITLE6=Sunday Mornin' Comin' Down
TTITLE7=I Still Belong To You
TTITLE8=I Wish I Was A Little Boy Again
TTITLE9=It's Only Make Believe
TTITLE10=Nothing Between Us
TTITLE11=Rose Garden
TTITLE12=Cry
TTITLE13=How Can I Unlove You
TTITLE14=Stay There 'Til I Get There
TTITLE15=That's What Loving You Has Meant To Me
TTITLE16=Listen To A Country Song
TTITLE17=You're My Man
TTITLE18=No Love At All
TTITLE19=Don't Say Things You Don't Mean
TTITLE20=I'm Gonna Write A Song
TTITLE21=Nothing Between Us
EXTD=
EXTT0=
EXTT1=
EXTT2=
EXTT3=
EXTT4=
EXTT5=
EXTT6=
EXTT7=
EXTT8=
EXTT9=
EXTT10=
EXTT11=
EXTT12=
EXTT13=
EXTT14=
EXTT15=
EXTT16=
EXTT17=
EXTT18=
EXTT19=
EXTT20=
EXTT21=
PLAYORDER=
